  0
SECTION
  2
HEADER
  9
$ACADVER
  1
AC1024
  9
$ACADMAINTVER
 70
     6
  9
$DWGCODEPAGE
  3
ANSI_1252
  9
$INSBASE
 10
0.0
 20
0.0
 30
0.0
  9
$EXTMIN
 10
1.000000000000000E+20
 20
1.000000000000000E+20
 30
1.000000000000000E+20
  9
$EXTMAX
 10
-1.000000000000000E+20
 20
-1.000000000000000E+20
 30
-1.000000000000000E+20
  9
$LIMMIN
 10
0.0
 20
0.0
  9
$LIMMAX
 10
12.0
 20
9.0
  9
$ORTHOMODE
 70
     0
  9
$REGENMODE
 70
     1
  9
$FILLMODE
 70
     1
  9
$QTEXTMODE
 70
     0
  9
$MIRRTEXT
 70
     1
  9
$LTSCALE
 40
1.0
  9
$ATTMODE
 70
     1
  9
$TEXTSIZE
 40
0.2
  9
$TRACEWID
 40
0.05
  9
$TEXTSTYLE
  7
Standard
  9
$CLAYER
  8
0
  9
$CELTYPE
  6
ByLayer
  9
$CECOLOR
 62
   256
  9
$CELTSCALE
 40
1.0
  9
$DISPSILH
 70
     0
  9
$DIMSCALE
 40
1.0
  9
$DIMASZ
 40
0.18
  9
$DIMEXO
 40
0.0625
  9
$DIMDLI
 40
0.38
  9
$DIMRND
 40
0.0
  9
$DIMDLE
 40
0.0
  9
$DIMEXE
 40
0.18
  9
$DIMTP
 40
0.0
  9
$DIMTM
 40
0.0
  9
$DIMTXT
 40
0.18
  9
$DIMCEN
 40
0.09
  9
$DIMTSZ
 40
0.0
  9
$DIMTOL
 70
     0
  9
$DIMLIM
 70
     0
  9
$DIMTIH
 70
     1
  9
$DIMTOH
 70
     1
  9
$DIMSE1
 70
     0
  9
$DIMSE2
 70
     0
  9
$DIMTAD
 70
     0
  9
$DIMZIN
 70
     0
  9
$DIMBLK
  1

  9
$DIMASO
 70
     1
  9
$DIMSHO
 70
     1
  9
$DIMPOST
  1

  9
$DIMAPOST
  1

  9
$DIMALT
 70
     0
  9
$DIMALTD
 70
     2
  9
$DIMALTF
 40
25.4
  9
$DIMLFAC
 40
1.0
  9
$DIMTOFL
 70
     0
  9
$DIMTVP
 40
0.0
  9
$DIMTIX
 70
     0
  9
$DIMSOXD
 70
     0
  9
$DIMSAH
 70
     0
  9
$DIMBLK1
  1

  9
$DIMBLK2
  1

  9
$DIMSTYLE
  2
Standard
  9
$DIMCLRD
 70
     0
  9
$DIMCLRE
 70
     0
  9
$DIMCLRT
 70
     0
  9
$DIMTFAC
 40
1.0
  9
$DIMGAP
 40
0.09
  9
$DIMJUST
 70
     0
  9
$DIMSD1
 70
     0
  9
$DIMSD2
 70
     0
  9
$DIMTOLJ
 70
     1
  9
$DIMTZIN
 70
     0
  9
$DIMALTZ
 70
     0
  9
$DIMALTTZ
 70
     0
  9
$DIMUPT
 70
     0
  9
$DIMDEC
 70
     4
  9
$DIMTDEC
 70
     4
  9
$DIMALTU
 70
     2
  9
$DIMALTTD
 70
     2
  9
$DIMTXSTY
  7
Standard
  9
$DIMAUNIT
 70
     0
  9
$DIMADEC
 70
     0
  9
$DIMALTRND
 40
0.0
  9
$DIMAZIN
 70
     0
  9
$DIMDSEP
 70
    46
  9
$DIMATFIT
 70
     3
  9
$DIMFRAC
 70
     0
  9
$DIMLDRBLK
  1

  9
$DIMLUNIT
 70
     2
  9
$DIMLWD
 70
    -2
  9
$DIMLWE
 70
    -2
  9
$DIMTMOVE
 70
     0
  9
$DIMFXL
 40
1.0
  9
$DIMFXLON
 70
     0
  9
$DIMJOGANG
 40
0.7853981633974483
  9
$DIMTFILL
 70
     0
  9
$DIMTFILLCLR
 70
     0
  9
$DIMARCSYM
 70
     0
  9
$DIMLTYPE
  6

  9
$DIMLTEX1
  6

  9
$DIMLTEX2
  6

  9
$DIMTXTDIRECTION
 70
     0
  9
$LUNITS
 70
     2
  9
$LUPREC
 70
     4
  9
$SKETCHINC
 40
0.1
  9
$FILLETRAD
 40
0.5
  9
$AUNITS
 70
     0
  9
$AUPREC
 70
     0
  9
$MENU
  1
.
  9
$ELEVATION
 40
0.0
  9
$PELEVATION
 40
0.0
  9
$THICKNESS
 40
0.0
  9
$LIMCHECK
 70
     0
  9
$CHAMFERA
 40
0.5
  9
$CHAMFERB
 40
0.5
  9
$CHAMFERC
 40
1.0
  9
$CHAMFERD
 40
0.0
  9
$SKPOLY
 70
     0
  9
$TDCREATE
 40
2460693.549877373
  9
$TDUCREATE
 40
2460693.758210706
  9
$TDUPDATE
 40
2460693.549878611
  9
$TDUUPDATE
 40
2460693.758211944
  9
$TDINDWG
 40
0.0000000116
  9
$TDUSRTIMER
 40
0.0000000116
  9
$USRTIMER
 70
     1
  9
$ANGBASE
 50
0.0
  9
$ANGDIR
 70
     0
  9
$PDMODE
 70
     0
  9
$PDSIZE
 40
0.0
  9
$PLINEWID
 40
0.0
  9
$SPLFRAME
 70
     0
  9
$SPLINETYPE
 70
     6
  9
$SPLINESEGS
 70
     8
  9
$HANDSEED
  5
60
  9
$SURFTAB1
 70
     6
  9
$SURFTAB2
 70
     6
  9
$SURFTYPE
 70
     6
  9
$SURFU
 70
     6
  9
$SURFV
 70
     6
  9
$UCSBASE
  2

  9
$UCSNAME
  2

  9
$UCSORG
 10
0.0
 20
0.0
 30
0.0
  9
$UCSXDIR
 10
1.0
 20
0.0
 30
0.0
  9
$UCSYDIR
 10
0.0
 20
1.0
 30
0.0
  9
$UCSORTHOREF
  2

  9
$UCSORTHOVIEW
 70
     0
  9
$UCSORGTOP
 10
0.0
 20
0.0
 30
0.0
  9
$UCSORGBOTTOM
 10
0.0
 20
0.0
 30
0.0
  9
$UCSORGLEFT
 10
0.0
 20
0.0
 30
0.0
  9
$UCSORGRIGHT
 10
0.0
 20
0.0
 30
0.0
  9
$UCSORGFRONT
 10
0.0
 20
0.0
 30
0.0
  9
$UCSORGBACK
 10
0.0
 20
0.0
 30
0.0
  9
$PUCSBASE
  2

  9
$PUCSNAME
  2

  9
$PUCSORG
 10
0.0
 20
0.0
 30
0.0
  9
$PUCSXDIR
 10
1.0
 20
0.0
 30
0.0
  9
$PUCSYDIR
 10
0.0
 20
1.0
 30
0.0
  9
$PUCSORTHOREF
  2

  9
$PUCSORTHOVIEW
 70
     0
  9
$PUCSORGTOP
 10
0.0
 20
0.0
 30
0.0
  9
$PUCSORGBOTTOM
 10
0.0
 20
0.0
 30
0.0
  9
$PUCSORGLEFT
 10
0.0
 20
0.0
 30
0.0
  9
$PUCSORGRIGHT
 10
0.0
 20
0.0
 30
0.0
  9
$PUCSORGFRONT
 10
0.0
 20
0.0
 30
0.0
  9
$PUCSORGBACK
 10
0.0
 20
0.0
 30
0.0
  9
$USERI1
 70
     0
  9
$USERI2
 70
     0
  9
$USERI3
 70
     0
  9
$USERI4
 70
     0
  9
$USERI5
 70
     0
  9
$USERR1
 40
0.0
  9
$USERR2
 40
0.0
  9
$USERR3
 40
0.0
  9
$USERR4
 40
0.0
  9
$USERR5
 40
0.0
  9
$WORLDVIEW
 70
     1
  9
$SHADEDGE
 70
     3
  9
$SHADEDIF
 70
    70
  9
$TILEMODE
 70
     1
  9
$MAXACTVP
 70
    64
  9
$PINSBASE
 10
0.0
 20
0.0
 30
0.0
  9
$PLIMCHECK
 70
     0
  9
$PEXTMIN
 10
1.000000000000000E+20
 20
1.000000000000000E+20
 30
1.000000000000000E+20
  9
$PEXTMAX
 10
-1.000000000000000E+20
 20
-1.000000000000000E+20
 30
-1.000000000000000E+20
  9
$PLIMMIN
 10
0.0
 20
0.0
  9
$PLIMMAX
 10
12.0
 20
9.0
  9
$UNITMODE
 70
     0
  9
$VISRETAIN
 70
     1
  9
$PLINEGEN
 70
     0
  9
$PSLTSCALE
 70
     1
  9
$TREEDEPTH
 70
  3020
  9
$CMLSTYLE
  2
Standard
  9
$CMLJUST
 70
     0
  9
$CMLSCALE
 40
1.0
  9
$PROXYGRAPHICS
 70
     1
  9
$MEASUREMENT
 70
     0
  9
$CELWEIGHT
370
    -1
  9
$ENDCAPS
280
     0
  9
$JOINSTYLE
280
     0
  9
$LWDISPLAY
290
     1
  9
$INSUNITS
 70
     0
  9
$HYPERLINKBASE
  1

  9
$STYLESHEET
  1

  9
$XEDIT
290
     1
  9
$CEPSNTYPE
380
     0
  9
$PSTYLEMODE
290
     1
  9
$FINGERPRINTGUID
  2
{303DEBC8-84A2-4AAE-8218-D0DAA115F833}
  9
$VERSIONGUID
  2
{FAEB1C32-E019-11D5-929B-00C0DF256EC4}
  9
$EXTNAMES
290
     1
  9
$PSVPSCALE
 40
0.0
  9
$OLESTARTUP
290
     0
  9
$SORTENTS
280
   127
  9
$INDEXCTL
280
     0
  9
$HIDETEXT
280
     1
  9
$XCLIPFRAME
280
     2
  9
$HALOGAP
280
     0
  9
$OBSCOLOR
 70
   257
  9
$OBSLTYPE
280
     0
  9
$INTERSECTIONDISPLAY
280
     0
  9
$INTERSECTIONCOLOR
 70
   257
  9
$DIMASSOC
280
     2
  9
$PROJECTNAME
  1

  9
$CAMERADISPLAY
290
     0
  9
$LENSLENGTH
 40
50.0
  9
$CAMERAHEIGHT
 40
0.0
  9
$STEPSPERSEC
 40
2.0
  9
$STEPSIZE
 40
6.0
  9
$3DDWFPREC
 40
2.0
  9
$PSOLWIDTH
 40
0.25
  9
$PSOLHEIGHT
 40
4.0
  9
$LOFTANG1
 40
1.570796326794897
  9
$LOFTANG2
 40
1.570796326794897
  9
$LOFTMAG1
 40
0.0
  9
$LOFTMAG2
 40
0.0
  9
$LOFTPARAM
 70
     7
  9
$LOFTNORMALS
280
     1
  9
$LATITUDE
 40
37.795
  9
$LONGITUDE
 40
-122.394
  9
$NORTHDIRECTION
 40
0.0
  9
$TIMEZONE
 70
 -8000
  9
$LIGHTGLYPHDISPLAY
280
     1
  9
$TILEMODELIGHTSYNCH
280
     1
  9
$CMATERIAL
347
3C
  9
$SOLIDHIST
280
     1
  9
$SHOWHIST
280
     1
  9
$DWFFRAME
280
     2
  9
$DGNFRAME
280
     2
  9
$REALWORLDSCALE
290
     1
  9
$INTERFERECOLOR
 62
   256
  9
$CSHADOW
280
     0
  9
$SHADOWPLANELOCATION
 40
0.0
  0
ENDSEC
  0
SECTION
  2
CLASSES
  0
CLASS
  1
ACDBDICTIONARYWDFLT
  2
AcDbDictionaryWithDefault
  3
ObjectDBX Classes
 90
        0
 91
        4
280
     0
281
     0
  0
CLASS
  1
VISUALSTYLE
  2
AcDbVisualStyle
  3
ObjectDBX Classes
 90
     4095
 91
        4
280
     0
281
     0
  0
CLASS
  1
MATERIAL
  2
AcDbMaterial
  3
ObjectDBX Classes
 90
     1153
 91
        4
280
     0
281
     0
  0
CLASS
  1
SUN
  2
AcDbSun
  3
SCENEOE
 90
     1024
 91
        4
280
     0
281
     0
  0
ENDSEC
  0
SECTION
  2
TABLES
  0
TABLE
  2
VPORT
  5
8
330
0
100
AcDbSymbolTable
 70
     1
  0
VPORT
  5
29
330
8
100
AcDbSymbolTableRecord
100
AcDbViewportTableRecord
  2
*Active
 70
     0
 10
0.0
 20
0.0
 11
1.0
 21
1.0
 12
0.0
 22
0.0
 13
0.0
 23
0.0
 14
0.5
 24
0.5
 15
0.5
 25
0.5
 16
0.0
 26
0.0
 36
1.0
 17
250.0
 27
-250.0
 37
0.0
 40
500.0
 41
1.0
 42
50.0
 43
0.0
 44
0.0
 50
0.0
 51
0.0
 71
     0
 72
   100
 73
     1
 74
     3
 75
     0
 76
     0
 77
     0
 78
     0
281
     0
 65
     1
110
0.0
120
0.0
130
0.0
111
1.0
121
0.0
131
0.0
112
0.0
122
1.0
132
0.0
 79
     0
146
0.0
 60
     3
 61
     5
292
     1
282
     1
141
0.0
142
0.0
 63
   250
361
3F
  0
ENDTAB
  0
TABLE
  2
LTYPE
  5
5
330
0
100
AcDbSymbolTable
 70
     1
  0
LTYPE
  5
14
330
5
100
AcDbSymbolTableRecord
100
AcDbLinetypeTableRecord
  2
ByBlock
 70
     0
  3

 72
    65
 73
     0
 40
0.0
  0
LTYPE
  5
15
330
5
100
AcDbSymbolTableRecord
100
AcDbLinetypeTableRecord
  2
ByLayer
 70
     0
  3

 72
    65
 73
     0
 40
0.0
  0
LTYPE
  5
16
330
5
100
AcDbSymbolTableRecord
100
AcDbLinetypeTableRecord
  2
Continuous
 70
     0
  3
Solid line
 72
    65
 73
     0
 40
0.0
  0
ENDTAB
  0
TABLE
  2
LAYER
  5
2
330
0
100
AcDbSymbolTable
 70
     6
  0
LAYER
  5
10
330
2
100
AcDbSymbolTableRecord
100
AcDbLayerTableRecord
  2
0
 70
     0
 62
     7
  6
Continuous
370
    -3
390
F
347
3E
  0
LAYER
  5
40
330
2
100
AcDbSymbolTableRecord
100
AcDbLayerTableRecord
  2
Layer 3
 70
     1
 62
     7
  6
Continuous
370
    -3
390
F
347
3E
  0
LAYER
  5
49
330
2
100
AcDbSymbolTableRecord
100
AcDbLayerTableRecord
  2
main text
 70
     1
 62
     7
  6
Continuous
370
    -3
390
F
347
3E
  0
LAYER
  5
4D
330
2
100
AcDbSymbolTableRecord
100
AcDbLayerTableRecord
  2
motto
 70
     1
 62
     7
  6
Continuous
370
    -3
390
F
347
3E
  0
LAYER
  5
4F
330
2
100
AcDbSymbolTableRecord
100
AcDbLayerTableRecord
  2
logo
 70
     0
 62
     7
  6
Continuous
370
    -3
390
F
347
3E
  0
LAYER
  5
54
330
2
100
AcDbSymbolTableRecord
100
AcDbLayerTableRecord
  2
Layer 2
 70
     1
 62
     7
  6
Continuous
370
    -3
390
F
347
3E
  0
ENDTAB
  0
TABLE
  2
STYLE
  5
3
330
0
100
AcDbSymbolTable
 70
     1
  0
STYLE
  5
11
330
3
100
AcDbSymbolTableRecord
100
AcDbTextStyleTableRecord
  2
Standard
 70
     0
 40
0.0
 41
1.0
 50
0.0
 71
     0
 42
0.2
  3
txt
  4

  0
ENDTAB
  0
TABLE
  2
VIEW
  5
6
330
0
100
AcDbSymbolTable
 70
     0
  0
ENDTAB
  0
TABLE
  2
UCS
  5
7
330
0
100
AcDbSymbolTable
 70
     0
  0
ENDTAB
  0
TABLE
  2
APPID
  5
9
330
0
100
AcDbSymbolTable
 70
     1
  0
APPID
  5
12
330
9
100
AcDbSymbolTableRecord
100
AcDbRegAppTableRecord
  2
ACAD
 70
     0
  0
ENDTAB
  0
TABLE
  2
DIMSTYLE
  5
A
330
0
100
AcDbSymbolTable
 70
     1
100
AcDbDimStyleTable
  0
DIMSTYLE
105
27
330
A
100
AcDbSymbolTableRecord
100
AcDbDimStyleTableRecord
  2
Standard
 70
     0
178
     0
340
11
  0
ENDTAB
  0
TABLE
  2
BLOCK_RECORD
  5
1
330
0
100
AcDbSymbolTable
 70
     1
  0
BLOCK_RECORD
  5
1F
330
1
100
AcDbSymbolTableRecord
100
AcDbBlockTableRecord
  2
*Model_Space
340
22
 70
     0
280
     1
281
     0
  0
BLOCK_RECORD
  5
1B
330
1
100
AcDbSymbolTableRecord
100
AcDbBlockTableRecord
  2
*Paper_Space
340
1E
 70
     0
280
     1
281
     0
  0
BLOCK_RECORD
  5
23
330
1
100
AcDbSymbolTableRecord
100
AcDbBlockTableRecord
  2
*Paper_Space0
340
26
 70
     0
280
     1
281
     0
  0
ENDTAB
  0
ENDSEC
  0
SECTION
  2
BLOCKS
  0
BLOCK
  5
20
330
1F
100
AcDbEntity
  8
0
100
AcDbBlockBegin
  2
*Model_Space
 70
     0
 10
0.0
 20
0.0
 30
0.0
  3
*Model_Space
  1

  0
ENDBLK
  5
21
330
1F
100
AcDbEntity
  8
0
100
AcDbBlockEnd
  0
BLOCK
  5
1C
330
1B
100
AcDbEntity
 67
     1
  8
0
100
AcDbBlockBegin
  2
*Paper_Space
 70
     0
 10
0.0
 20
0.0
 30
0.0
  3
*Paper_Space
  1

  0
ENDBLK
  5
1D
330
1B
100
AcDbEntity
 67
     1
  8
0
100
AcDbBlockEnd
  0
BLOCK
  5
24
330
23
100
AcDbEntity
  8
0
100
AcDbBlockBegin
  2
*Paper_Space0
 70
     0
 10
0.0
 20
0.0
 30
0.0
  3
*Paper_Space0
  1

  0
ENDBLK
  5
25
330
23
100
AcDbEntity
  8
0
100
AcDbBlockEnd
  0
ENDSEC
  0
SECTION
  2
ENTITIES
  0
POLYLINE
  5
41
330
1F
100
AcDbEntity
  8
Layer 3
370
     0
100
AcDb2dPolyline
 66
     1
 10
0.0
 20
0.0
 30
0.0
  0
VERTEX
  5
42
330
41
100
AcDbEntity
  8
Layer 3
370
     0
100
AcDbVertex
100
AcDb2dVertex
 10
500.0
 20
-500.0000000673444
 30
0.0
  0
VERTEX
  5
43
330
41
100
AcDbEntity
  8
Layer 3
370
     0
100
AcDbVertex
100
AcDb2dVertex
 10
0.0
 20
-500.0000000673444
 30
0.0
  0
VERTEX
  5
44
330
41
100
AcDbEntity
  8
Layer 3
370
     0
100
AcDbVertex
100
AcDb2dVertex
 10
0.0
 20
0.0
 30
0.0
  0
VERTEX
  5
45
330
41
100
AcDbEntity
  8
Layer 3
370
     0
100
AcDbVertex
100
AcDb2dVertex
 10
500.0
 20
0.0
 30
0.0
  0
VERTEX
  5
46
330
41
100
AcDbEntity
  8
Layer 3
370
     0
100
AcDbVertex
100
AcDb2dVertex
 10
500.0
 20
-500.0000000673444
 30
0.0
  0
SEQEND
  5
48
330
41
100
AcDbEntity
  8
Layer 3
370
     0
  0
HATCH
  5
47
330
1F
100
AcDbEntity
  8
Layer 3
 62
     7
420
 16776959
100
AcDbHatch
 10
0.0
 20
0.0
 30
0.0
210
0.0
220
0.0
230
1.0
  2
SOLID
 70
     1
 71
     0
 91
        1
 92
        1
 93
        4
 72
     1
 10
500.0
 20
-500.0000000673444
 11
0.0
 21
-500.0000000673444
 72
     1
 10
0.0
 20
-500.0000000673444
 11
0.0
 21
0.0
 72
     1
 10
0.0
 20
0.0
 11
500.0
 21
0.0
 72
     1
 10
500.0
 20
0.0
 11
500.0
 21
-500.0000000673444
 97
        0
 75
     2
 76
     1
 98
        0
  0
MTEXT
  5
4A
330
1F
100
AcDbEntity
  8
main text
 62
   232
420
 14689133
100
AcDbMText
 10
104.67724609375
 20
-374.4775390625
 30
0.0
 40
46.45640158081054
 41
0.0
 46
0.0
 71
     7
 72
     1
  1
\fGameplaya|b0|i1|c0|p34;\W1;QUEEN
 73
     1
 44
1.0
  0
MTEXT
  5
4B
330
1F
100
AcDbEntity
  8
main text
 62
   232
420
 14689133
100
AcDbMText
 10
210.2041015625
 20
-400.625
 30
0.0
 40
20.90538503265381
 41
0.0
 46
0.0
 71
     7
 72
     1
  1
\fGameplaya|b0|i1|c0|p34;\W1;CITY
 73
     1
 44
1.0
  0
MTEXT
  5
4C
330
1F
100
AcDbEntity
  8
main text
 62
   232
420
 14689133
100
AcDbMText
 10
107.1015625
 20
-432.5439453125
 30
0.0
 40
27.87384040832519
 41
0.0
 46
0.0
 71
     7
 72
     1
  1
\fGameplaya|b0|i1|c0|p34;\W1;ROCKETRY
 73
     1
 44
1.0
  0
MTEXT
  5
4E
330
1F
100
AcDbEntity
  8
motto
 62
   232
420
 14689133
100
AcDbMText
 10
114.12158203125
 20
-353.1748046875
 30
0.0
 40
20.09690560913086
 41
0.0
 46
0.0
 71
     7
 72
     1
  1
\fCoolveticaRg-Regular|b0|i0|c0|p34;\W1;in infinitum nec amplius
 73
     1
 44
1.0
  0
SPLINE
  5
50
330
1F
100
AcDbEntity
  8
logo
370
     0
100
AcDbSpline
210
0.0
220
0.0
230
1.0
 70
    11
 71
     3
 72
   224
 73
   220
 74
     0
 42
0.0000000001
 43
0.0000000001
 12
1.0
 22
0.0
 32
0.0
 13
1.0
 23
0.0
 33
0.0
 40
0.0
 40
0.0
 40
0.0
 40
0.0
 40
1.0
 40
1.0
 40
1.0
 40
2.0
 40
2.0
 40
2.0
 40
3.0
 40
3.0
 40
3.0
 40
4.0
 40
4.0
 40
4.0
 40
5.0
 40
5.0
 40
5.0
 40
6.0
 40
6.0
 40
6.0
 40
7.0
 40
7.0
 40
7.0
 40
8.0
 40
8.0
 40
8.0
 40
9.0
 40
9.0
 40
9.0
 40
10.0
 40
10.0
 40
10.0
 40
11.0
 40
11.0
 40
11.0
 40
12.0
 40
12.0
 40
12.0
 40
13.0
 40
13.0
 40
13.0
 40
14.0
 40
14.0
 40
14.0
 40
15.0
 40
15.0
 40
15.0
 40
16.0
 40
16.0
 40
16.0
 40
17.0
 40
17.0
 40
17.0
 40
18.0
 40
18.0
 40
18.0
 40
19.0
 40
19.0
 40
19.0
 40
20.0
 40
20.0
 40
20.0
 40
21.0
 40
21.0
 40
21.0
 40
22.0
 40
22.0
 40
22.0
 40
23.0
 40
23.0
 40
23.0
 40
24.0
 40
24.0
 40
24.0
 40
25.0
 40
25.0
 40
25.0
 40
26.0
 40
26.0
 40
26.0
 40
27.0
 40
27.0
 40
27.0
 40
28.0
 40
28.0
 40
28.0
 40
29.0
 40
29.0
 40
29.0
 40
30.0
 40
30.0
 40
30.0
 40
31.0
 40
31.0
 40
31.0
 40
32.0
 40
32.0
 40
32.0
 40
33.0
 40
33.0
 40
33.0
 40
34.0
 40
34.0
 40
34.0
 40
35.0
 40
35.0
 40
35.0
 40
36.0
 40
36.0
 40
36.0
 40
37.0
 40
37.0
 40
37.0
 40
38.0
 40
38.0
 40
38.0
 40
39.0
 40
39.0
 40
39.0
 40
40.0
 40
40.0
 40
40.0
 40
41.0
 40
41.0
 40
41.0
 40
42.0
 40
42.0
 40
42.0
 40
43.0
 40
43.0
 40
43.0
 40
44.0
 40
44.0
 40
44.0
 40
45.0
 40
45.0
 40
45.0
 40
46.0
 40
46.0
 40
46.0
 40
47.0
 40
47.0
 40
47.0
 40
48.0
 40
48.0
 40
48.0
 40
49.0
 40
49.0
 40
49.0
 40
50.0
 40
50.0
 40
50.0
 40
51.0
 40
51.0
 40
51.0
 40
52.0
 40
52.0
 40
52.0
 40
53.0
 40
53.0
 40
53.0
 40
54.0
 40
54.0
 40
54.0
 40
55.0
 40
55.0
 40
55.0
 40
56.0
 40
56.0
 40
56.0
 40
57.0
 40
57.0
 40
57.0
 40
58.0
 40
58.0
 40
58.0
 40
59.0
 40
59.0
 40
59.0
 40
60.0
 40
60.0
 40
60.0
 40
61.0
 40
61.0
 40
61.0
 40
62.0
 40
62.0
 40
62.0
 40
63.0
 40
63.0
 40
63.0
 40
64.0
 40
64.0
 40
64.0
 40
65.0
 40
65.0
 40
65.0
 40
66.0
 40
66.0
 40
66.0
 40
67.0
 40
67.0
 40
67.0
 40
68.0
 40
68.0
 40
68.0
 40
69.0
 40
69.0
 40
69.0
 40
70.0
 40
70.0
 40
70.0
 40
71.0
 40
71.0
 40
71.0
 40
72.0
 40
72.0
 40
72.0
 40
73.0
 40
73.0
 40
73.0
 40
73.0
 10
394.9878068371199
 20
-297.1469150200101
 30
0.0
 10
394.9878068371199
 20
-297.1469150200101
 30
0.0
 10
393.3045445491971
 20
-290.958433057478
 30
0.0
 10
393.3045445491971
 20
-290.958433057478
 30
0.0
 10
393.3045445491971
 20
-290.958433057478
 30
0.0
 10
389.9379198506904
 20
-278.581469132414
 30
0.0
 10
389.9379198506904
 20
-278.581469132414
 30
0.0
 10
389.9379198506904
 20
-278.581469132414
 30
0.0
 10
385.2915272147438
 20
-261.4995408108534
 30
0.0
 10
385.2915272147438
 20
-261.4995408108534
 30
0.0
 10
385.2915272147438
 20
-261.4995408108534
 30
0.0
 10
385.2915272147438
 20
-261.4995408108534
 30
0.0
 10
385.2915272147438
 20
-261.4995408108534
 30
0.0
 10
385.2915272147438
 20
-261.4995408108534
 30
0.0
 10
366.0392398273198
 20
-190.7211249894262
 30
0.0
 10
366.0392398273198
 20
-190.7211249894262
 30
0.0
 10
366.0392398273198
 20
-190.7211249894262
 30
0.0
 10
357.175380063487
 20
-244.4920036313288
 30
0.0
 10
328.9918503569261
 20
-244.4920036313288
 30
0.0
 10
293.2591716349634
 20
-244.4920036313288
 30
0.0
 10
266.2415703927618
 20
-190.7818994486679
 30
0.0
 10
255.8260095262522
 20
-154.9291736482382
 30
0.0
 10
257.4361822668125
 20
-215.0128866058458
 30
0.0
 10
264.4790109520927
 20
-292.7304040289055
 30
0.0
 10
290.0217051776763
 20
-296.0180319426654
 30
0.0
 10
303.4651757581596
 20
-297.7483518843637
 30
0.0
 10
318.3569207256714
 20
-294.6088053960029
 30
0.0
 10
332.3870100157037
 20
-289.5635240522861
 30
0.0
 10
332.2921938494728
 20
-288.8955056139675
 30
0.0
 10
332.2263131341842
 20
-288.2182758902272
 30
0.0
 10
332.2263131341842
 20
-287.5241254356624
 30
0.0
 10
332.2263131341842
 20
-279.5607689443459
 30
0.0
 10
338.6818222512393
 20
-273.105259827289
 30
0.0
 10
346.6450786198893
 20
-273.105259827289
 30
0.0
 10
347.9691007764122
 20
-273.105259827289
 30
0.0
 10
349.2454645431499
 20
-273.2985966984488
 30
0.0
 10
350.4634567946723
 20
-273.6328061629447
 30
0.0
 10
352.4203543331805
 20
-264.7613370763702
 30
0.0
 10
360.3179302318767
 20
-258.1195997975519
 30
0.0
 10
369.7776199906803
 20
-258.1195997975519
 30
0.0
 10
370.714367668872
 20
-258.1195997975519
 30
0.0
 10
371.6286878695191
 20
-258.2061057823703
 30
0.0
 10
372.5299921233782
 20
-258.3328610795688
 30
0.0
 10
372.5299921233782
 20
-258.3328610795688
 30
0.0
 10
378.8576445938925
 20
-281.5954617955886
 30
0.0
 10
378.8576445938925
 20
-281.5954617955886
 30
0.0
 10
378.8576445938925
 20
-281.5954617955886
 30
0.0
 10
382.224269292401
 20
-293.9723255979825
 30
0.0
 10
382.224269292401
 20
-293.9723255979825
 30
0.0
 10
382.224269292401
 20
-293.9723255979825
 30
0.0
 10
383.9075315803202
 20
-300.1608075605145
 30
0.0
 10
383.9075315803202
 20
-300.1608075605145
 30
0.0
 10
383.9075315803202
 20
-300.1608075605145
 30
0.0
 10
384.3284472749674
 20
-301.7079030204804
 30
0.0
 10
384.3284472749674
 20
-301.7079030204804
 30
0.0
 10
384.4254661398845
 20
-302.0395092956151
 30
0.0
 10
384.4098470037388
 20
-302.0652408211936
 30
0.0
 10
384.4227628278604
 20
-302.1483426353134
 30
0.0
 10
384.4342769346367
 20
-302.2292417507451
 30
0.0
 10
384.450096316119
 20
-302.3087391488298
 30
0.0
 10
384.4704212176439
 20
-302.3876358109083
 30
0.0
 10
384.5363019329343
 20
-302.5452288897322
 30
0.0
 10
384.5263897888399
 20
-302.7018207418805
 30
0.0
 10
384.5332982529071
 20
-302.854107319321
 30
0.0
 10
384.5500187383968
 20
-303.0064940194279
 30
0.0
 10
384.5921703814638
 20
-303.1599820688807
 30
0.0
 10
384.554724503776
 20
-303.3082637396165
 30
0.0
 10
384.5980776188517
 20
-304.4924145294826
 30
0.0
 10
384.002047378548
 20
-305.7259257944825
 30
0.0
 10
383.0973389539922
 20
-306.6085071094985
 30
0.0
 10
382.6417808163496
 20
-307.0387342122322
 30
0.0
 10
382.1349598728884
 20
-307.406284525041
 30
0.0
 10
381.5707686408859
 20
-307.6016238495577
 30
0.0
 10
381.2798121687993
 20
-307.6729111888981
 30
0.0
 10
381.0075786355592
 20
-307.8014686941133
 30
0.0
 10
380.6939944405931
 20
-307.8219938409748
 30
0.0
 10
380.5499179218968
 20
-307.8751589774783
 30
0.0
 10
380.3901221443866
 20
-307.8867732069211
 30
0.0
 10
380.223417902811
 20
-307.8754593454796
 30
0.0
 10
380.1422184193743
 20
-307.8784630255086
 30
0.0
 10
380.0613193039426
 20
-307.8860723482467
 30
0.0
 10
379.9802199431761
 20
-307.8981871910273
 30
0.0
 10
379.9175431532512
 20
-307.9022922204003
 30
0.0
 10
379.9485811802115
 20
-307.9157086578616
 30
0.0
 10
379.8086096908864
 20
-307.9154082898567
 30
0.0
 10
379.8086096908864
 20
-307.9154082898567
 30
0.0
 10
379.4078186524293
 20
-307.9154082898567
 30
0.0
 10
379.4078186524293
 20
-307.9154082898567
 30
0.0
 10
379.4078186524293
 20
-307.9154082898567
 30
0.0
 10
353.7544888791308
 20
-307.9154082898567
 30
0.0
 10
353.7544888791308
 20
-307.9154082898567
 30
0.0
 10
353.7544888791308
 20
-307.9154082898567
 30
0.0
 10
251.1414701539452
 20
-307.9154082898567
 30
0.0
 10
251.1414701539452
 20
-307.9154082898567
 30
0.0
 10
251.1414701539452
 20
-307.9154082898567
 30
0.0
 10
148.5284514287578
 20
-307.9154082898567
 30
0.0
 10
148.5284514287578
 20
-307.9154082898567
 30
0.0
 10
148.5284514287578
 20
-307.9154082898567
 30
0.0
 10
122.8751216554601
 20
-307.9154082898567
 30
0.0
 10
122.8751216554601
 20
-307.9154082898567
 30
0.0
 10
122.8751216554601
 20
-307.9154082898567
 30
0.0
 10
122.4743306170039
 20
-307.9154082898567
 30
0.0
 10
122.4743306170039
 20
-307.9154082898567
 30
0.0
 10
122.3343591276798
 20
-307.9157086578616
 30
0.0
 10
122.3653971546391
 20
-307.9022922204003
 30
0.0
 10
122.3027203647143
 20
-307.8981871910273
 30
0.0
 10
122.221621003946
 20
-307.8860723482467
 30
0.0
 10
122.1407218885151
 20
-307.8784630255086
 30
0.0
 10
122.0595224050803
 20
-307.8754593454796
 30
0.0
 10
121.8928181635038
 20
-307.8867732069211
 30
0.0
 10
121.7330223859917
 20
-307.8751589774783
 30
0.0
 10
121.5889458672964
 20
-307.8219938409748
 30
0.0
 10
121.2753616723303
 20
-307.8014686941133
 30
0.0
 10
121.0031281390893
 20
-307.6729111888981
 30
0.0
 10
120.7121716670044
 20
-307.6016238495577
 30
0.0
 10
120.1479804350001
 20
-307.406284525041
 30
0.0
 10
119.6410593688734
 20
-307.0387342122322
 30
0.0
 10
119.1856013538982
 20
-306.6085071094985
 30
0.0
 10
118.2808929293406
 20
-305.7259257944825
 30
0.0
 10
117.6848626890378
 20
-304.4924145294826
 30
0.0
 10
117.7282158041144
 20
-303.3082637396165
 30
0.0
 10
117.6907699264266
 20
-303.1599820688807
 30
0.0
 10
117.7329215694926
 20
-303.0064940194279
 30
0.0
 10
117.7496420549833
 20
-302.854107319321
 30
0.0
 10
117.7565505190487
 20
-302.7018207418805
 30
0.0
 10
117.7466383749552
 20
-302.5452288897322
 30
0.0
 10
117.8125190902447
 20
-302.3876358109083
 30
0.0
 10
117.8328439917714
 20
-302.3087391488298
 30
0.0
 10
117.8486633732537
 20
-302.2292417507451
 30
0.0
 10
117.8601774800291
 20
-302.1483426353134
 30
0.0
 10
117.8730933041516
 20
-302.0652408211936
 30
0.0
 10
117.857474168004
 20
-302.0395092956151
 30
0.0
 10
117.9544930329212
 20
-301.7079030204804
 30
0.0
 10
117.9544930329212
 20
-301.7079030204804
 30
0.0
 10
118.375308604901
 20
-300.1608075605145
 30
0.0
 10
118.375308604901
 20
-300.1608075605145
 30
0.0
 10
118.375308604901
 20
-300.1608075605145
 30
0.0
 10
120.0586710154894
 20
-293.9723255979825
 30
0.0
 10
120.0586710154894
 20
-293.9723255979825
 30
0.0
 10
120.0586710154894
 20
-293.9723255979825
 30
0.0
 10
123.425295713997
 20
-281.5954617955886
 30
0.0
 10
123.425295713997
 20
-281.5954617955886
 30
0.0
 10
123.425295713997
 20
-281.5954617955886
 30
0.0
 10
129.7529481845113
 20
-258.3327609569023
 30
0.0
 10
129.7529481845113
 20
-258.3327609569023
 30
0.0
 10
130.6542524383703
 20
-258.2060056597038
 30
0.0
 10
131.5684725163501
 20
-258.1195997975519
 30
0.0
 10
132.5052201945427
 20
-258.1195997975519
 30
0.0
 10
141.9649099533463
 20
-258.1195997975519
 30
0.0
 10
149.8624858520416
 20
-264.7613370763702
 30
0.0
 10
151.8193833905507
 20
-273.6328061629447
 30
0.0
 10
153.037275519403
 20
-273.2985966984488
 30
0.0
 10
154.3136392861416
 20
-273.105259827289
 30
0.0
 10
155.6376614426645
 20
-273.105259827289
 30
0.0
 10
163.6010179339819
 20
-273.105259827289
 30
0.0
 10
170.0565270510388
 20
-279.5607689443459
 30
0.0
 10
170.0565270510388
 20
-287.5241254356624
 30
0.0
 10
170.0565270510388
 20
-288.21907687157
 30
0.0
 10
169.9904460904136
 20
-288.8971075766476
 30
0.0
 10
169.8954296788479
 20
-289.5658268736406
 30
0.0
 10
183.9248181102057
 20
-294.6120093213667
 30
0.0
 10
198.8176644270634
 20
-297.7484520070302
 30
0.0
 10
212.2611350075458
 20
-296.0180319426654
 30
0.0
 10
237.803729110462
 20
-292.7304040289055
 30
0.0
 10
244.8466579184078
 20
-215.0130868511824
 30
0.0
 10
246.4568306589699
 20
-154.9295741389087
 30
0.0
 10
236.041169669792
 20
-190.7822999393393
 30
0.0
 10
209.0235684275913
 20
-244.4920036313288
 30
0.0
 10
173.2910899509643
 20
-244.4920036313288
 30
0.0
 10
145.1074601217351
 20
-244.4920036313288
 30
0.0
 10
136.2437004805688
 20
-190.7211249894262
 30
0.0
 10
136.2437004805688
 20
-190.7211249894262
 30
0.0
 10
136.2437004805688
 20
-190.7211249894262
 30
0.0
 10
119.0782698542171
 20
-253.8276414049596
 30
0.0
 10
119.0782698542171
 20
-253.8276414049596
 30
0.0
 10
119.0782698542171
 20
-253.8276414049596
 30
0.0
 10
112.3450204571991
 20
-278.581469132414
 30
0.0
 10
112.3450204571991
 20
-278.581469132414
 30
0.0
 10
112.3450204571991
 20
-278.581469132414
 30
0.0
 10
108.9783957586906
 20
-290.958433057478
 30
0.0
 10
108.9783957586906
 20
-290.958433057478
 30
0.0
 10
108.9783957586906
 20
-290.958433057478
 30
0.0
 10
107.2950333481031
 20
-297.1469150200101
 30
0.0
 10
107.2950333481031
 20
-297.1469150200101
 30
0.0
 10
106.6945977104242
 20
-299.1945236953761
 30
0.0
 10
106.2077011778201
 20
-301.3017053579715
 30
0.0
 10
106.2461482821827
 20
-303.4443304449032
 30
0.0
 10
106.2331323353928
 20
-307.7355879788247
 30
0.0
 10
108.1545864495674
 20
-311.9353333945455
 30
0.0
 10
111.2289530813096
 20
-314.8879508624723
 30
0.0
 10
112.7691400772119
 20
-316.3619567750793
 30
0.0
 10
114.5865667397338
 20
-317.5716388451874
 30
0.0
 10
116.5930249987114
 20
-318.3202560309346
 30
0.0
 10
118.5954783509833
 20
-319.0877964008596
 30
0.0
 10
120.7389044192569
 20
-319.3878640356979
 30
0.0
 10
122.8751216554601
 20
-319.3982767931302
 30
0.0
 10
122.8751216554601
 20
-319.3982767931302
 30
0.0
 10
148.5284514287578
 20
-319.3982767931302
 30
0.0
 10
148.5284514287578
 20
-319.3982767931302
 30
0.0
 10
148.5284514287578
 20
-319.3982767931302
 30
0.0
 10
251.1414701539452
 20
-319.3982767931302
 30
0.0
 10
251.1414701539452
 20
-319.3982767931302
 30
0.0
 10
251.1414701539452
 20
-319.3982767931302
 30
0.0
 10
353.7544888791308
 20
-319.3982767931302
 30
0.0
 10
353.7544888791308
 20
-319.3982767931302
 30
0.0
 10
353.7544888791308
 20
-319.3982767931302
 30
0.0
 10
379.4078186524293
 20
-319.3982767931302
 30
0.0
 10
379.4078186524293
 20
-319.3982767931302
 30
0.0
 10
381.5440358886317
 20
-319.3878640356979
 30
0.0
 10
383.6873618342379
 20
-319.0877964008596
 30
0.0
 10
385.6899153091781
 20
-318.3202560309346
 30
0.0
 10
387.6963735681566
 20
-317.5716388451874
 30
0.0
 10
389.5138002306794
 20
-316.3619567750793
 30
0.0
 10
391.0539872265799
 20
-314.8879508624723
 30
0.0
 10
394.128353858323
 20
-311.9353333945455
 30
0.0
 10
396.0498079724948
 20
-307.7355879788247
 30
0.0
 10
396.0367920257067
 20
-303.4443304449032
 30
0.0
 10
396.0752391300703
 20
-301.3017053579715
 30
0.0
 10
395.5883425974644
 20
-299.1945236953761
 30
0.0
 10
394.9878068371199
 20
-297.1469150200101
 30
0.0
  0
HATCH
  5
51
330
1F
100
AcDbEntity
  8
logo
 62
   232
420
 14689133
100
AcDbHatch
 10
0.0
 20
0.0
 30
0.0
210
0.0
220
0.0
230
1.0
  2
SOLID
 70
     1
 71
     0
 91
        1
 92
        1
 93
        1
 72
     4
 94
        3
 73
     0
 74
     1
 95
      224
 96
      220
 40
0.0
 40
0.0
 40
0.0
 40
0.0
 40
1.0
 40
1.0
 40
1.0
 40
2.0
 40
2.0
 40
2.0
 40
3.0
 40
3.0
 40
3.0
 40
4.0
 40
4.0
 40
4.0
 40
5.0
 40
5.0
 40
5.0
 40
6.0
 40
6.0
 40
6.0
 40
7.0
 40
7.0
 40
7.0
 40
8.0
 40
8.0
 40
8.0
 40
9.0
 40
9.0
 40
9.0
 40
10.0
 40
10.0
 40
10.0
 40
11.0
 40
11.0
 40
11.0
 40
12.0
 40
12.0
 40
12.0
 40
13.0
 40
13.0
 40
13.0
 40
14.0
 40
14.0
 40
14.0
 40
15.0
 40
15.0
 40
15.0
 40
16.0
 40
16.0
 40
16.0
 40
17.0
 40
17.0
 40
17.0
 40
18.0
 40
18.0
 40
18.0
 40
19.0
 40
19.0
 40
19.0
 40
20.0
 40
20.0
 40
20.0
 40
21.0
 40
21.0
 40
21.0
 40
22.0
 40
22.0
 40
22.0
 40
23.0
 40
23.0
 40
23.0
 40
24.0
 40
24.0
 40
24.0
 40
25.0
 40
25.0
 40
25.0
 40
26.0
 40
26.0
 40
26.0
 40
27.0
 40
27.0
 40
27.0
 40
28.0
 40
28.0
 40
28.0
 40
29.0
 40
29.0
 40
29.0
 40
30.0
 40
30.0
 40
30.0
 40
31.0
 40
31.0
 40
31.0
 40
32.0
 40
32.0
 40
32.0
 40
33.0
 40
33.0
 40
33.0
 40
34.0
 40
34.0
 40
34.0
 40
35.0
 40
35.0
 40
35.0
 40
36.0
 40
36.0
 40
36.0
 40
37.0
 40
37.0
 40
37.0
 40
38.0
 40
38.0
 40
38.0
 40
39.0
 40
39.0
 40
39.0
 40
40.0
 40
40.0
 40
40.0
 40
41.0
 40
41.0
 40
41.0
 40
42.0
 40
42.0
 40
42.0
 40
43.0
 40
43.0
 40
43.0
 40
44.0
 40
44.0
 40
44.0
 40
45.0
 40
45.0
 40
45.0
 40
46.0
 40
46.0
 40
46.0
 40
47.0
 40
47.0
 40
47.0
 40
48.0
 40
48.0
 40
48.0
 40
49.0
 40
49.0
 40
49.0
 40
50.0
 40
50.0
 40
50.0
 40
51.0
 40
51.0
 40
51.0
 40
52.0
 40
52.0
 40
52.0
 40
53.0
 40
53.0
 40
53.0
 40
54.0
 40
54.0
 40
54.0
 40
55.0
 40
55.0
 40
55.0
 40
56.0
 40
56.0
 40
56.0
 40
57.0
 40
57.0
 40
57.0
 40
58.0
 40
58.0
 40
58.0
 40
59.0
 40
59.0
 40
59.0
 40
60.0
 40
60.0
 40
60.0
 40
61.0
 40
61.0
 40
61.0
 40
62.0
 40
62.0
 40
62.0
 40
63.0
 40
63.0
 40
63.0
 40
64.0
 40
64.0
 40
64.0
 40
65.0
 40
65.0
 40
65.0
 40
66.0
 40
66.0
 40
66.0
 40
67.0
 40
67.0
 40
67.0
 40
68.0
 40
68.0
 40
68.0
 40
69.0
 40
69.0
 40
69.0
 40
70.0
 40
70.0
 40
70.0
 40
71.0
 40
71.0
 40
71.0
 40
72.0
 40
72.0
 40
72.0
 40
73.0
 40
73.0
 40
73.0
 40
73.0
 10
394.9878068371199
 20
-297.1469150200101
 10
394.9878068371199
 20
-297.1469150200101
 10
393.3045445491971
 20
-290.958433057478
 10
393.3045445491971
 20
-290.958433057478
 10
393.3045445491971
 20
-290.958433057478
 10
389.9379198506904
 20
-278.581469132414
 10
389.9379198506904
 20
-278.581469132414
 10
389.9379198506904
 20
-278.581469132414
 10
385.2915272147438
 20
-261.4995408108534
 10
385.2915272147438
 20
-261.4995408108534
 10
385.2915272147438
 20
-261.4995408108534
 10
385.2915272147438
 20
-261.4995408108534
 10
385.2915272147438
 20
-261.4995408108534
 10
385.2915272147438
 20
-261.4995408108534
 10
366.0392398273198
 20
-190.7211249894262
 10
366.0392398273198
 20
-190.7211249894262
 10
366.0392398273198
 20
-190.7211249894262
 10
357.175380063487
 20
-244.4920036313288
 10
328.9918503569261
 20
-244.4920036313288
 10
293.2591716349634
 20
-244.4920036313288
 10
266.2415703927618
 20
-190.7818994486679
 10
255.8260095262522
 20
-154.9291736482382
 10
257.4361822668125
 20
-215.0128866058458
 10
264.4790109520927
 20
-292.7304040289055
 10
290.0217051776763
 20
-296.0180319426654
 10
303.4651757581596
 20
-297.7483518843637
 10
318.3569207256714
 20
-294.6088053960029
 10
332.3870100157037
 20
-289.5635240522861
 10
332.2921938494728
 20
-288.8955056139675
 10
332.2263131341842
 20
-288.2182758902272
 10
332.2263131341842
 20
-287.5241254356624
 10
332.2263131341842
 20
-279.5607689443459
 10
338.6818222512393
 20
-273.105259827289
 10
346.6450786198893
 20
-273.105259827289
 10
347.9691007764122
 20
-273.105259827289
 10
349.2454645431499
 20
-273.2985966984488
 10
350.4634567946723
 20
-273.6328061629447
 10
352.4203543331805
 20
-264.7613370763702
 10
360.3179302318767
 20
-258.1195997975519
 10
369.7776199906803
 20
-258.1195997975519
 10
370.714367668872
 20
-258.1195997975519
 10
371.6286878695191
 20
-258.2061057823703
 10
372.5299921233782
 20
-258.3328610795688
 10
372.5299921233782
 20
-258.3328610795688
 10
378.8576445938925
 20
-281.5954617955886
 10
378.8576445938925
 20
-281.5954617955886
 10
378.8576445938925
 20
-281.5954617955886
 10
382.224269292401
 20
-293.9723255979825
 10
382.224269292401
 20
-293.9723255979825
 10
382.224269292401
 20
-293.9723255979825
 10
383.9075315803202
 20
-300.1608075605145
 10
383.9075315803202
 20
-300.1608075605145
 10
383.9075315803202
 20
-300.1608075605145
 10
384.3284472749674
 20
-301.7079030204804
 10
384.3284472749674
 20
-301.7079030204804
 10
384.4254661398845
 20
-302.0395092956151
 10
384.4098470037388
 20
-302.0652408211936
 10
384.4227628278604
 20
-302.1483426353134
 10
384.4342769346367
 20
-302.2292417507451
 10
384.450096316119
 20
-302.3087391488298
 10
384.4704212176439
 20
-302.3876358109083
 10
384.5363019329343
 20
-302.5452288897322
 10
384.5263897888399
 20
-302.7018207418805
 10
384.5332982529071
 20
-302.854107319321
 10
384.5500187383968
 20
-303.0064940194279
 10
384.5921703814638
 20
-303.1599820688807
 10
384.554724503776
 20
-303.3082637396165
 10
384.5980776188517
 20
-304.4924145294826
 10
384.002047378548
 20
-305.7259257944825
 10
383.0973389539922
 20
-306.6085071094985
 10
382.6417808163496
 20
-307.0387342122322
 10
382.1349598728884
 20
-307.406284525041
 10
381.5707686408859
 20
-307.6016238495577
 10
381.2798121687993
 20
-307.6729111888981
 10
381.0075786355592
 20
-307.8014686941133
 10
380.6939944405931
 20
-307.8219938409748
 10
380.5499179218968
 20
-307.8751589774783
 10
380.3901221443866
 20
-307.8867732069211
 10
380.223417902811
 20
-307.8754593454796
 10
380.1422184193743
 20
-307.8784630255086
 10
380.0613193039426
 20
-307.8860723482467
 10
379.9802199431761
 20
-307.8981871910273
 10
379.9175431532512
 20
-307.9022922204003
 10
379.9485811802115
 20
-307.9157086578616
 10
379.8086096908864
 20
-307.9154082898567
 10
379.8086096908864
 20
-307.9154082898567
 10
379.4078186524293
 20
-307.9154082898567
 10
379.4078186524293
 20
-307.9154082898567
 10
379.4078186524293
 20
-307.9154082898567
 10
353.7544888791308
 20
-307.9154082898567
 10
353.7544888791308
 20
-307.9154082898567
 10
353.7544888791308
 20
-307.9154082898567
 10
251.1414701539452
 20
-307.9154082898567
 10
251.1414701539452
 20
-307.9154082898567
 10
251.1414701539452
 20
-307.9154082898567
 10
148.5284514287578
 20
-307.9154082898567
 10
148.5284514287578
 20
-307.9154082898567
 10
148.5284514287578
 20
-307.9154082898567
 10
122.8751216554601
 20
-307.9154082898567
 10
122.8751216554601
 20
-307.9154082898567
 10
122.8751216554601
 20
-307.9154082898567
 10
122.4743306170039
 20
-307.9154082898567
 10
122.4743306170039
 20
-307.9154082898567
 10
122.3343591276798
 20
-307.9157086578616
 10
122.3653971546391
 20
-307.9022922204003
 10
122.3027203647143
 20
-307.8981871910273
 10
122.221621003946
 20
-307.8860723482467
 10
122.1407218885151
 20
-307.8784630255086
 10
122.0595224050803
 20
-307.8754593454796
 10
121.8928181635038
 20
-307.8867732069211
 10
121.7330223859917
 20
-307.8751589774783
 10
121.5889458672964
 20
-307.8219938409748
 10
121.2753616723303
 20
-307.8014686941133
 10
121.0031281390893
 20
-307.6729111888981
 10
120.7121716670044
 20
-307.6016238495577
 10
120.1479804350001
 20
-307.406284525041
 10
119.6410593688734
 20
-307.0387342122322
 10
119.1856013538982
 20
-306.6085071094985
 10
118.2808929293406
 20
-305.7259257944825
 10
117.6848626890378
 20
-304.4924145294826
 10
117.7282158041144
 20
-303.3082637396165
 10
117.6907699264266
 20
-303.1599820688807
 10
117.7329215694926
 20
-303.0064940194279
 10
117.7496420549833
 20
-302.854107319321
 10
117.7565505190487
 20
-302.7018207418805
 10
117.7466383749552
 20
-302.5452288897322
 10
117.8125190902447
 20
-302.3876358109083
 10
117.8328439917714
 20
-302.3087391488298
 10
117.8486633732537
 20
-302.2292417507451
 10
117.8601774800291
 20
-302.1483426353134
 10
117.8730933041516
 20
-302.0652408211936
 10
117.857474168004
 20
-302.0395092956151
 10
117.9544930329212
 20
-301.7079030204804
 10
117.9544930329212
 20
-301.7079030204804
 10
118.375308604901
 20
-300.1608075605145
 10
118.375308604901
 20
-300.1608075605145
 10
118.375308604901
 20
-300.1608075605145
 10
120.0586710154894
 20
-293.9723255979825
 10
120.0586710154894
 20
-293.9723255979825
 10
120.0586710154894
 20
-293.9723255979825
 10
123.425295713997
 20
-281.5954617955886
 10
123.425295713997
 20
-281.5954617955886
 10
123.425295713997
 20
-281.5954617955886
 10
129.7529481845113
 20
-258.3327609569023
 10
129.7529481845113
 20
-258.3327609569023
 10
130.6542524383703
 20
-258.2060056597038
 10
131.5684725163501
 20
-258.1195997975519
 10
132.5052201945427
 20
-258.1195997975519
 10
141.9649099533463
 20
-258.1195997975519
 10
149.8624858520416
 20
-264.7613370763702
 10
151.8193833905507
 20
-273.6328061629447
 10
153.037275519403
 20
-273.2985966984488
 10
154.3136392861416
 20
-273.105259827289
 10
155.6376614426645
 20
-273.105259827289
 10
163.6010179339819
 20
-273.105259827289
 10
170.0565270510388
 20
-279.5607689443459
 10
170.0565270510388
 20
-287.5241254356624
 10
170.0565270510388
 20
-288.21907687157
 10
169.9904460904136
 20
-288.8971075766476
 10
169.8954296788479
 20
-289.5658268736406
 10
183.9248181102057
 20
-294.6120093213667
 10
198.8176644270634
 20
-297.7484520070302
 10
212.2611350075458
 20
-296.0180319426654
 10
237.803729110462
 20
-292.7304040289055
 10
244.8466579184078
 20
-215.0130868511824
 10
246.4568306589699
 20
-154.9295741389087
 10
236.041169669792
 20
-190.7822999393393
 10
209.0235684275913
 20
-244.4920036313288
 10
173.2910899509643
 20
-244.4920036313288
 10
145.1074601217351
 20
-244.4920036313288
 10
136.2437004805688
 20
-190.7211249894262
 10
136.2437004805688
 20
-190.7211249894262
 10
136.2437004805688
 20
-190.7211249894262
 10
119.0782698542171
 20
-253.8276414049596
 10
119.0782698542171
 20
-253.8276414049596
 10
119.0782698542171
 20
-253.8276414049596
 10
112.3450204571991
 20
-278.581469132414
 10
112.3450204571991
 20
-278.581469132414
 10
112.3450204571991
 20
-278.581469132414
 10
108.9783957586906
 20
-290.958433057478
 10
108.9783957586906
 20
-290.958433057478
 10
108.9783957586906
 20
-290.958433057478
 10
107.2950333481031
 20
-297.1469150200101
 10
107.2950333481031
 20
-297.1469150200101
 10
106.6945977104242
 20
-299.1945236953761
 10
106.2077011778201
 20
-301.3017053579715
 10
106.2461482821827
 20
-303.4443304449032
 10
106.2331323353928
 20
-307.7355879788247
 10
108.1545864495674
 20
-311.9353333945455
 10
111.2289530813096
 20
-314.8879508624723
 10
112.7691400772119
 20
-316.3619567750793
 10
114.5865667397338
 20
-317.5716388451874
 10
116.5930249987114
 20
-318.3202560309346
 10
118.5954783509833
 20
-319.0877964008596
 10
120.7389044192569
 20
-319.3878640356979
 10
122.8751216554601
 20
-319.3982767931302
 10
122.8751216554601
 20
-319.3982767931302
 10
148.5284514287578
 20
-319.3982767931302
 10
148.5284514287578
 20
-319.3982767931302
 10
148.5284514287578
 20
-319.3982767931302
 10
251.1414701539452
 20
-319.3982767931302
 10
251.1414701539452
 20
-319.3982767931302
 10
251.1414701539452
 20
-319.3982767931302
 10
353.7544888791308
 20
-319.3982767931302
 10
353.7544888791308
 20
-319.3982767931302
 10
353.7544888791308
 20
-319.3982767931302
 10
379.4078186524293
 20
-319.3982767931302
 10
379.4078186524293
 20
-319.3982767931302
 10
381.5440358886317
 20
-319.3878640356979
 10
383.6873618342379
 20
-319.0877964008596
 10
385.6899153091781
 20
-318.3202560309346
 10
387.6963735681566
 20
-317.5716388451874
 10
389.5138002306794
 20
-316.3619567750793
 10
391.0539872265799
 20
-314.8879508624723
 10
394.128353858323
 20
-311.9353333945455
 10
396.0498079724948
 20
-307.7355879788247
 10
396.0367920257067
 20
-303.4443304449032
 10
396.0752391300703
 20
-301.3017053579715
 10
395.5883425974644
 20
-299.1945236953761
 10
394.9878068371199
 20
-297.1469150200101
 97
        0
 97
        0
 75
     2
 76
     1
 98
        0
  0
SPLINE
  5
52
330
1F
100
AcDbEntity
  8
logo
370
     0
100
AcDbSpline
210
0.0
220
0.0
230
1.0
 70
    11
 71
     3
 72
    17
 73
    13
 74
     0
 42
0.0000000001
 43
0.0000000001
 12
1.0
 22
0.0
 32
0.0
 13
1.0
 23
0.0
 33
0.0
 40
0.0
 40
0.0
 40
0.0
 40
0.0
 40
1.0
 40
1.0
 40
1.0
 40
2.0
 40
2.0
 40
2.0
 40
3.0
 40
3.0
 40
3.0
 40
4.0
 40
4.0
 40
4.0
 40
4.0
 10
251.1414701513859
 20
-51.75789473684199
 30
0.0
 10
254.7713184965869
 20
-91.19242571392715
 30
0.0
 10
257.7138919800145
 20
-94.13499919774858
 30
0.0
 10
297.1484229517864
 20
-97.76484754344256
 30
0.0
 10
257.7138919800145
 20
-101.3946958891374
 30
0.0
 10
254.7713184965869
 20
-104.3372693729571
 30
0.0
 10
251.1414701513859
 20
-143.771800350044
 30
0.0
 10
247.5116218061758
 20
-104.3372693729571
 30
0.0
 10
244.5690483227527
 20
-101.3946958891374
 30
0.0
 10
205.1345173509781
 20
-97.76484754344256
 30
0.0
 10
244.5690483227527
 20
-94.13499919774858
 30
0.0
 10
247.5116218061758
 20
-91.19242571392715
 30
0.0
 10
251.1414701513859
 20
-51.75789473684199
 30
0.0
  0
HATCH
  5
53
330
1F
100
AcDbEntity
  8
logo
 62
   232
420
 14689133
100
AcDbHatch
 10
0.0
 20
0.0
 30
0.0
210
0.0
220
0.0
230
1.0
  2
SOLID
 70
     1
 71
     0
 91
        1
 92
        1
 93
        2
 72
     4
 94
        3
 73
     0
 74
     0
 95
       17
 96
       13
 40
0.0
 40
0.0
 40
0.0
 40
0.0
 40
1.0
 40
1.0
 40
1.0
 40
2.0
 40
2.0
 40
2.0
 40
3.0
 40
3.0
 40
3.0
 40
4.0
 40
4.0
 40
4.0
 40
4.0
 10
251.1414701513859
 20
-51.75789473684199
 10
254.7713184965869
 20
-91.19242571392715
 10
257.7138919800145
 20
-94.13499919774858
 10
297.1484229517864
 20
-97.76484754344256
 10
257.7138919800145
 20
-101.3946958891374
 10
254.7713184965869
 20
-104.3372693729571
 10
251.1414701513859
 20
-143.771800350044
 10
247.5116218061758
 20
-104.3372693729571
 10
244.5690483227527
 20
-101.3946958891374
 10
205.1345173509781
 20
-97.76484754344256
 10
244.5690483227527
 20
-94.13499919774858
 10
247.5116218061758
 20
-91.19242571392715
 10
251.1414701513859
 20
-51.75789473684199
 97
        0
 72
     1
 10
251.1414701513859
 20
-51.75789473684199
 11
251.1414701513859
 21
-51.75789473684199
 97
        0
 75
     2
 76
     1
 98
        0
  0
POLYLINE
  5
55
330
1F
100
AcDbEntity
  8
Layer 2
370
     0
100
AcDb2dPolyline
 66
     1
 10
0.0
 20
0.0
 30
0.0
  0
VERTEX
  5
56
330
55
100
AcDbEntity
  8
Layer 2
370
     0
100
AcDbVertex
100
AcDb2dVertex
 10
-162.2340425531929
 20
213.2169600711641
 30
0.0
  0
VERTEX
  5
57
330
55
100
AcDbEntity
  8
Layer 2
370
     0
100
AcDbVertex
100
AcDb2dVertex
 10
-162.2340425531929
 20
-573.3446196456316
 30
0.0
  0
VERTEX
  5
58
330
55
100
AcDbEntity
  8
Layer 2
370
     0
100
AcDbVertex
100
AcDb2dVertex
 10
662.2340425531929
 20
-573.3446196456316
 30
0.0
  0
VERTEX
  5
59
330
55
100
AcDbEntity
  8
Layer 2
370
     0
100
AcDbVertex
100
AcDb2dVertex
 10
662.2340425531929
 20
213.2169600711641
 30
0.0
  0
VERTEX
  5
5A
330
55
100
AcDbEntity
  8
Layer 2
370
     0
100
AcDbVertex
100
AcDb2dVertex
 10
-162.2340425531929
 20
213.2169600711641
 30
0.0
  0
SEQEND
  5
5B
330
55
100
AcDbEntity
  8
Layer 2
370
     0
  0
SPLINE
  5
5C
330
1F
100
AcDbEntity
  8
Layer 2
370
     0
100
AcDbSpline
210
0.0
220
0.0
230
1.0
 70
    11
 71
     3
 72
    17
 73
    13
 74
     0
 42
0.0000000001
 43
0.0000000001
 12
1.0
 22
0.0
 32
0.0
 13
1.0
 23
0.0
 33
0.0
 40
0.0
 40
0.0
 40
0.0
 40
0.0
 40
1.0
 40
1.0
 40
1.0
 40
2.0
 40
2.0
 40
2.0
 40
3.0
 40
3.0
 40
3.0
 40
4.0
 40
4.0
 40
4.0
 40
4.0
 10
250.0
 20
-325.7672297836107
 30
0.0
 10
169.5302493470062
 20
-325.7672297836107
 30
0.0
 10
104.2966000036231
 20
-260.5335804402275
 30
0.0
 10
104.2966000036231
 20
-180.0638297872347
 30
0.0
 10
104.2966000036231
 20
-99.59400833944801
 30
0.0
 10
169.5302493470062
 20
-34.36035899606395
 30
0.0
 10
250.0
 20
-34.36035899606395
 30
0.0
 10
330.4697506529938
 20
-34.36035899606395
 30
0.0
 10
395.7033999963769
 20
-99.59400833944801
 30
0.0
 10
395.7033999963769
 20
-180.0638297872347
 30
0.0
 10
395.7033999963769
 20
-260.5335804402275
 30
0.0
 10
330.4697506529938
 20
-325.7672297836107
 30
0.0
 10
250.0
 20
-325.7672297836107
 30
0.0
  0
HATCH
  5
5D
330
1F
100
AcDbEntity
  8
Layer 2
 62
     7
420
 16777215
100
AcDbHatch
 10
0.0
 20
0.0
 30
0.0
210
0.0
220
0.0
230
1.0
  2
SOLID
 70
     1
 71
     0
 91
        2
 92
        1
 93
        4
 72
     1
 10
-162.2340425531929
 20
213.2169600711641
 11
-162.2340425531929
 21
-573.3446196456316
 72
     1
 10
-162.2340425531929
 20
-573.3446196456316
 11
662.2340425531929
 21
-573.3446196456316
 72
     1
 10
662.2340425531929
 20
-573.3446196456316
 11
662.2340425531929
 21
213.2169600711641
 72
     1
 10
662.2340425531929
 20
213.2169600711641
 11
-162.2340425531929
 21
213.2169600711641
 97
        0
 92
        1
 93
        1
 72
     4
 94
        3
 73
     0
 74
     1
 95
       17
 96
       13
 40
0.0
 40
0.0
 40
0.0
 40
0.0
 40
1.0
 40
1.0
 40
1.0
 40
2.0
 40
2.0
 40
2.0
 40
3.0
 40
3.0
 40
3.0
 40
4.0
 40
4.0
 40
4.0
 40
4.0
 10
250.0
 20
-325.7672297836107
 10
169.5302493470062
 20
-325.7672297836107
 10
104.2966000036231
 20
-260.5335804402275
 10
104.2966000036231
 20
-180.0638297872347
 10
104.2966000036231
 20
-99.59400833944801
 10
169.5302493470062
 20
-34.36035899606395
 10
250.0
 20
-34.36035899606395
 10
330.4697506529938
 20
-34.36035899606395
 10
395.7033999963769
 20
-99.59400833944801
 10
395.7033999963769
 20
-180.0638297872347
 10
395.7033999963769
 20
-260.5335804402275
 10
330.4697506529938
 20
-325.7672297836107
 10
250.0
 20
-325.7672297836107
 97
        0
 97
        0
 75
     2
 76
     1
 98
        0
  0
ENDSEC
  0
SECTION
  2
OBJECTS
  0
DICTIONARY
  5
C
330
0
100
AcDbDictionary
281
     1
  3
ACAD_GROUP
350
D
  3
ACAD_LAYOUT
350
1A
  3
ACAD_MATERIAL
350
3B
  3
ACAD_MLEADERSTYLE
350
5F
  3
ACAD_MLINESTYLE
350
17
  3
ACAD_PLOTSETTINGS
350
19
  3
ACAD_PLOTSTYLENAME
350
E
  3
ACAD_TABLESTYLE
350
5E
  3
ACAD_VISUALSTYLE
350
2A
  0
SUN
  5
3F
330
29
100
AcDbSun
 90
        1
290
     0
 63
     7
421
 16777215
 40
1.0
291
     1
 91
  2455826
 92
 54000000
292
     0
 70
     2
 71
   256
280
     1
  0
DICTIONARY
  5
D
102
{ACAD_REACTORS
330
C
102
}
330
C
100
AcDbDictionary
281
     1
  0
DICTIONARY
  5
1A
102
{ACAD_REACTORS
330
C
102
}
330
C
100
AcDbDictionary
281
     1
  3
Layout1
350
1E
  3
Layout2
350
26
  3
Model
350
22
  0
DICTIONARY
  5
3B
102
{ACAD_REACTORS
330
C
102
}
330
C
100
AcDbDictionary
281
     1
  3
ByBlock
350
3D
  3
ByLayer
350
3C
  3
Global
350
3E
  0
DICTIONARY
  5
5F
102
{ACAD_REACTORS
330
C
102
}
330
C
100
AcDbDictionary
281
     1
  0
DICTIONARY
  5
17
102
{ACAD_REACTORS
330
C
102
}
330
C
100
AcDbDictionary
281
     1
  3
Standard
350
18
  0
DICTIONARY
  5
19
102
{ACAD_REACTORS
330
C
102
}
330
C
100
AcDbDictionary
281
     1
  0
ACDBDICTIONARYWDFLT
  5
E
102
{ACAD_REACTORS
330
C
102
}
330
C
100
AcDbDictionary
281
     1
  3
Normal
350
F
100
AcDbDictionaryWithDefault
340
F
  0
DICTIONARY
  5
5E
102
{ACAD_REACTORS
330
C
102
}
330
C
100
AcDbDictionary
281
     1
  0
DICTIONARY
  5
2A
102
{ACAD_REACTORS
330
C
102
}
330
C
100
AcDbDictionary
281
     1
  3
2dWireframe
350
2F
  3
3D Hidden
350
31
  3
3dWireframe
350
30
  3
Basic
350
32
  3
Brighten
350
36
  3
ColorChange
350
3A
  3
Conceptual
350
34
  3
Dim
350
35
  3
Facepattern
350
39
  3
Flat
350
2B
  3
FlatWithEdges
350
2C
  3
Gouraud
350
2D
  3
GouraudWithEdges
350
2E
  3
Linepattern
350
38
  3
Realistic
350
33
  3
Thicken
350
37
  0
LAYOUT
  5
1E
102
{ACAD_REACTORS
330
1A
102
}
330
1A
100
AcDbPlotSettings
  1

  2
none_device
  4

  6

 40
0.0
 41
0.0
 42
0.0
 43
0.0
 44
0.0
 45
0.0
 46
0.0
 47
0.0
 48
0.0
 49
0.0
140
0.0
141
0.0
142
1.0
143
1.0
 70
   688
 72
     0
 73
     0
 74
     5
  7

 75
    16
 76
     0
 77
     2
 78
   300
147
1.0
148
0.0
149
0.0
100
AcDbLayout
  1
Layout1
 70
     1
 71
     1
 10
0.0
 20
0.0
 11
12.0
 21
9.0
 12
0.0
 22
0.0
 32
0.0
 14
1.000000000000000E+20
 24
1.000000000000000E+20
 34
1.000000000000000E+20
 15
-1.000000000000000E+20
 25
-1.000000000000000E+20
 35
-1.000000000000000E+20
146
0.0
 13
0.0
 23
0.0
 33
0.0
 16
1.0
 26
0.0
 36
0.0
 17
0.0
 27
1.0
 37
0.0
 76
     0
330
1B
  0
LAYOUT
  5
26
102
{ACAD_REACTORS
330
1A
102
}
330
1A
100
AcDbPlotSettings
  1

  2
none_device
  4

  6

 40
0.0
 41
0.0
 42
0.0
 43
0.0
 44
0.0
 45
0.0
 46
0.0
 47
0.0
 48
0.0
 49
0.0
140
0.0
141
0.0
142
1.0
143
1.0
 70
   688
 72
     0
 73
     0
 74
     5
  7

 75
    16
 76
     0
 77
     2
 78
   300
147
1.0
148
0.0
149
0.0
100
AcDbLayout
  1
Layout2
 70
     1
 71
     2
 10
0.0
 20
0.0
 11
0.0
 21
0.0
 12
0.0
 22
0.0
 32
0.0
 14
0.0
 24
0.0
 34
0.0
 15
0.0
 25
0.0
 35
0.0
146
0.0
 13
0.0
 23
0.0
 33
0.0
 16
1.0
 26
0.0
 36
0.0
 17
0.0
 27
1.0
 37
0.0
 76
     0
330
23
  0
LAYOUT
  5
22
102
{ACAD_REACTORS
330
1A
102
}
330
1A
100
AcDbPlotSettings
  1

  2
none_device
  4

  6

 40
0.0
 41
0.0
 42
0.0
 43
0.0
 44
0.0
 45
0.0
 46
0.0
 47
0.0
 48
0.0
 49
0.0
140
0.0
141
0.0
142
1.0
143
1.0
 70
  1712
 72
     0
 73
     0
 74
     0
  7

 75
     0
 76
     0
 77
     2
 78
   300
147
1.0
148
0.0
149
0.0
100
AcDbLayout
  1
Model
 70
     1
 71
     0
 10
0.0
 20
0.0
 11
12.0
 21
9.0
 12
0.0
 22
0.0
 32
0.0
 14
1.000000000000000E+20
 24
1.000000000000000E+20
 34
1.000000000000000E+20
 15
-1.000000000000000E+20
 25
-1.000000000000000E+20
 35
-1.000000000000000E+20
146
0.0
 13
0.0
 23
0.0
 33
0.0
 16
1.0
 26
0.0
 36
0.0
 17
0.0
 27
1.0
 37
0.0
 76
     0
330
1F
331
29
  0
MATERIAL
  5
3D
102
{ACAD_REACTORS
330
3B
102
}
330
3B
100
AcDbMaterial
  1
ByBlock
 72
     1
 94
      127
  0
MATERIAL
  5
3C
102
{ACAD_REACTORS
330
3B
102
}
330
3B
100
AcDbMaterial
  1
ByLayer
 72
     1
 94
      127
  0
MATERIAL
  5
3E
102
{ACAD_REACTORS
330
3B
102
}
330
3B
100
AcDbMaterial
  1
Global
 72
     1
 94
      127
  0
MLINESTYLE
  5
18
102
{ACAD_REACTORS
330
17
102
}
330
17
100
AcDbMlineStyle
  2
Standard
 70
     0
  3

 62
   256
 51
90.0
 52
90.0
 71
     2
 49
0.5
 62
   256
  6
BYLAYER
 49
-0.5
 62
   256
  6
BYLAYER
  0
ACDBPLACEHOLDER
  5
F
102
{ACAD_REACTORS
330
E
102
}
330
E
  0
VISUALSTYLE
  5
2F
102
{ACAD_REACTORS
330
2A
102
}
330
2A
100
AcDbVisualStyle
  2
2dWireframe
 70
     4
177
     2
291
     0
 71
     0
176
     1
 72
     2
176
     1
 73
     0
176
     1
 90
        0
176
     1
 40
-0.6
176
     1
 41
-30.0
176
     1
 62
     5
 63
     7
421
 16777215
176
     1
 74
     1
176
     1
 91
        4
176
     1
 64
     7
176
     1
 65
   257
176
     1
 75
     1
176
     1
175
     1
176
     1
 42
1.0
176
     1
 92
        0
176
     1
 66
   257
176
     1
 43
1.0
176
     1
 76
     1
176
     1
 77
     6
176
     1
 78
     2
176
     1
 67
     7
176
     1
 79
     5
176
     1
170
     0
176
     1
171
     0
176
     1
290
     0
176
     1
 93
        1
176
     1
 44
0.0
176
     1
173
     0
176
     1
  0
VISUALSTYLE
  5
31
102
{ACAD_REACTORS
330
2A
102
}
330
2A
100
AcDbVisualStyle
  2
3D Hidden
 70
     6
177
     2
291
     0
 71
     1
176
     1
 72
     2
176
     1
 73
     2
176
     1
 90
        0
176
     1
 40
-0.6
176
     1
 41
-30.0
176
     1
 62
     5
 63
     7
421
 16777215
176
     1
 74
     2
176
     1
 91
        2
176
     1
 64
     7
176
     1
 65
   257
176
     1
 75
     2
176
     1
175
     1
176
     1
 42
40.0
176
     1
 92
        0
176
     1
 66
   257
176
     1
 43
1.0
176
     1
 76
     1
176
     1
 77
     6
176
     1
 78
     2
176
     1
 67
     7
176
     1
 79
     3
176
     1
170
     0
176
     1
171
     0
176
     1
290
     0
176
     1
 93
        1
176
     1
 44
0.0
176
     1
173
     0
176
     1
  0
VISUALSTYLE
  5
30
102
{ACAD_REACTORS
330
2A
102
}
330
2A
100
AcDbVisualStyle
  2
3dWireframe
 70
     5
177
     2
291
     0
 71
     0
176
     1
 72
     2
176
     1
 73
     0
176
     1
 90
        0
176
     1
 40
-0.6
176
     1
 41
-30.0
176
     1
 62
     5
 63
     7
421
 16777215
176
     1
 74
     1
176
     1
 91
        4
176
     1
 64
     7
176
     1
 65
   257
176
     1
 75
     1
176
     1
175
     1
176
     1
 42
1.0
176
     1
 92
        0
176
     1
 66
   257
176
     1
 43
1.0
176
     1
 76
     1
176
     1
 77
     6
176
     1
 78
     2
176
     1
 67
     7
176
     1
 79
     5
176
     1
170
     0
176
     1
171
     0
176
     1
290
     0
176
     1
 93
        1
176
     1
 44
0.0
176
     1
173
     0
176
     1
  0
VISUALSTYLE
  5
32
102
{ACAD_REACTORS
330
2A
102
}
330
2A
100
AcDbVisualStyle
  2
Basic
 70
     7
177
     2
291
     1
 71
     1
176
     1
 72
     0
176
     1
 73
     1
176
     1
 90
        0
176
     1
 40
-0.6
176
     1
 41
-30.0
176
     1
 62
     5
 63
     7
421
 16777215
176
     1
 74
     0
176
     1
 91
        4
176
     1
 64
     7
176
     1
 65
   257
176
     1
 75
     1
176
     1
175
     1
176
     1
 42
1.0
176
     1
 92
        8
176
     1
 66
     7
176
     1
 43
1.0
176
     1
 76
     1
176
     1
 77
     6
176
     1
 78
     2
176
     1
 67
     7
176
     1
 79
     5
176
     1
170
     0
176
     1
171
     0
176
     1
290
     0
176
     1
 93
        1
176
     1
 44
0.0
176
     1
173
     0
176
     1
  0
VISUALSTYLE
  5
36
102
{ACAD_REACTORS
330
2A
102
}
330
2A
100
AcDbVisualStyle
  2
Brighten
 70
    12
177
     2
291
     1
 71
     2
176
     1
 72
     2
176
     1
 73
     0
176
     1
 90
        0
176
     1
 40
-0.6
176
     1
 41
-30.0
176
     1
 62
     5
 63
     7
421
 16777215
176
     1
 74
     1
176
     1
 91
        4
176
     1
 64
     7
176
     1
 65
   257
176
     1
 75
     1
176
     1
175
     1
176
     1
 42
1.0
176
     1
 92
        8
176
     1
 66
     7
176
     1
 43
1.0
176
     1
 76
     1
176
     1
 77
     6
176
     1
 78
     2
176
     1
 67
     7
176
     1
 79
     5
176
     1
170
     0
176
     1
171
     0
176
     1
290
     0
176
     1
 93
        1
176
     1
 44
50.0
176
     1
173
     0
176
     1
  0
VISUALSTYLE
  5
3A
102
{ACAD_REACTORS
330
2A
102
}
330
2A
100
AcDbVisualStyle
  2
ColorChange
 70
    16
177
     2
291
     1
 71
     2
176
     1
 72
     2
176
     1
 73
     3
176
     1
 90
        0
176
     1
 40
-0.6
176
     1
 41
-30.0
176
     1
 62
     5
 63
     8
421
  8421504
176
     1
 74
     1
176
     1
 91
        4
176
     1
 64
     7
176
     1
 65
   257
176
     1
 75
     1
176
     1
175
     1
176
     1
 42
1.0
176
     1
 92
        8
176
     1
 66
     8
424
  8421504
176
     1
 43
1.0
176
     1
 76
     1
176
     1
 77
     6
176
     1
 78
     2
176
     1
 67
     7
176
     1
 79
     5
176
     1
170
     0
176
     1
171
     0
176
     1
290
     0
176
     1
 93
        1
176
     1
 44
0.0
176
     1
173
     0
176
     1
  0
VISUALSTYLE
  5
34
102
{ACAD_REACTORS
330
2A
102
}
330
2A
100
AcDbVisualStyle
  2
Conceptual
 70
     9
177
     2
291
     0
 71
     3
176
     1
 72
     2
176
     1
 73
     0
176
     1
 90
        0
176
     1
 40
-0.6
176
     1
 41
-30.0
176
     1
 62
     5
 63
     7
421
 16777215
176
     1
 74
     2
176
     1
 91
        2
176
     1
 64
     7
176
     1
 65
   257
176
     1
 75
     1
176
     1
175
     1
176
     1
 42
40.0
176
     1
 92
        8
176
     1
 66
     7
176
     1
 43
1.0
176
     1
 76
     1
176
     1
 77
     6
176
     1
 78
     2
176
     1
 67
     7
176
     1
 79
     3
176
     1
170
     0
176
     1
171
     0
176
     1
290
     0
176
     1
 93
        1
176
     1
 44
0.0
176
     1
173
     0
176
     1
  0
VISUALSTYLE
  5
35
102
{ACAD_REACTORS
330
2A
102
}
330
2A
100
AcDbVisualStyle
  2
Dim
 70
    11
177
     2
291
     1
 71
     2
176
     1
 72
     2
176
     1
 73
     0
176
     1
 90
        0
176
     1
 40
-0.6
176
     1
 41
-30.0
176
     1
 62
     5
 63
     7
421
 16777215
176
     1
 74
     1
176
     1
 91
        4
176
     1
 64
     7
176
     1
 65
   257
176
     1
 75
     1
176
     1
175
     1
176
     1
 42
1.0
176
     1
 92
        8
176
     1
 66
     7
176
     1
 43
1.0
176
     1
 76
     1
176
     1
 77
     6
176
     1
 78
     2
176
     1
 67
     7
176
     1
 79
     5
176
     1
170
     0
176
     1
171
     0
176
     1
290
     0
176
     1
 93
        1
176
     1
 44
-50.0
176
     1
173
     0
176
     1
  0
VISUALSTYLE
  5
39
102
{ACAD_REACTORS
330
2A
102
}
330
2A
100
AcDbVisualStyle
  2
Facepattern
 70
    15
177
     2
291
     1
 71
     2
176
     1
 72
     2
176
     1
 73
     0
176
     1
 90
        0
176
     1
 40
-0.6
176
     1
 41
-30.0
176
     1
 62
     5
 63
     7
421
 16777215
176
     1
 74
     1
176
     1
 91
        4
176
     1
 64
     7
176
     1
 65
   257
176
     1
 75
     1
176
     1
175
     1
176
     1
 42
1.0
176
     1
 92
        8
176
     1
 66
     7
176
     1
 43
1.0
176
     1
 76
     1
176
     1
 77
     6
176
     1
 78
     2
176
     1
 67
     7
176
     1
 79
     5
176
     1
170
     0
176
     1
171
     0
176
     1
290
     0
176
     1
 93
        1
176
     1
 44
0.0
176
     1
173
     0
176
     1
  0
VISUALSTYLE
  5
2B
102
{ACAD_REACTORS
330
2A
102
}
330
2A
100
AcDbVisualStyle
  2
Flat
 70
     0
177
     2
291
     1
 71
     2
176
     1
 72
     1
176
     1
 73
     1
176
     1
 90
        2
176
     1
 40
-0.6
176
     1
 41
30.0
176
     1
 62
     5
 63
     7
421
 16777215
176
     1
 74
     0
176
     1
 91
        4
176
     1
 64
     7
176
     1
 65
   257
176
     1
 75
     1
176
     1
175
     1
176
     1
 42
1.0
176
     1
 92
        8
176
     1
 66
     7
176
     1
 43
1.0
176
     1
 76
     1
176
     1
 77
     6
176
     1
 78
     2
176
     1
 67
     7
176
     1
 79
     5
176
     1
170
     0
176
     1
171
     0
176
     1
290
     0
176
     1
 93
       13
176
     1
 44
0.0
176
     1
173
     0
176
     1
  0
VISUALSTYLE
  5
2C
102
{ACAD_REACTORS
330
2A
102
}
330
2A
100
AcDbVisualStyle
  2
FlatWithEdges
 70
     1
177
     2
291
     1
 71
     2
176
     1
 72
     1
176
     1
 73
     1
176
     1
 90
        2
176
     1
 40
-0.6
176
     1
 41
30.0
176
     1
 62
     5
 63
     7
421
 16777215
176
     1
 74
     1
176
     1
 91
        4
176
     1
 64
     7
176
     1
 65
   257
176
     1
 75
     1
176
     1
175
     1
176
     1
 42
1.0
176
     1
 92
        0
176
     1
 66
   257
176
     1
 43
1.0
176
     1
 76
     1
176
     1
 77
     6
176
     1
 78
     2
176
     1
 67
     7
176
     1
 79
     5
176
     1
170
     0
176
     1
171
     0
176
     1
290
     0
176
     1
 93
       13
176
     1
 44
0.0
176
     1
173
     0
176
     1
  0
VISUALSTYLE
  5
2D
102
{ACAD_REACTORS
330
2A
102
}
330
2A
100
AcDbVisualStyle
  2
Gouraud
 70
     2
177
     2
291
     1
 71
     2
176
     1
 72
     2
176
     1
 73
     1
176
     1
 90
        2
176
     1
 40
-0.6
176
     1
 41
30.0
176
     1
 62
     5
 63
     7
421
 16777215
176
     1
 74
     0
176
     1
 91
        4
176
     1
 64
     7
176
     1
 65
   257
176
     1
 75
     1
176
     1
175
     1
176
     1
 42
1.0
176
     1
 92
        0
176
     1
 66
     7
176
     1
 43
1.0
176
     1
 76
     1
176
     1
 77
     6
176
     1
 78
     2
176
     1
 67
     7
176
     1
 79
     5
176
     1
170
     0
176
     1
171
     0
176
     1
290
     0
176
     1
 93
       13
176
     1
 44
0.0
176
     1
173
     0
176
     1
  0
VISUALSTYLE
  5
2E
102
{ACAD_REACTORS
330
2A
102
}
330
2A
100
AcDbVisualStyle
  2
GouraudWithEdges
 70
     3
177
     2
291
     1
 71
     2
176
     1
 72
     2
176
     1
 73
     1
176
     1
 90
        2
176
     1
 40
-0.6
176
     1
 41
30.0
176
     1
 62
     5
 63
     7
421
 16777215
176
     1
 74
     1
176
     1
 91
        4
176
     1
 64
     7
176
     1
 65
   257
176
     1
 75
     1
176
     1
175
     1
176
     1
 42
1.0
176
     1
 92
        0
176
     1
 66
   257
176
     1
 43
1.0
176
     1
 76
     1
176
     1
 77
     6
176
     1
 78
     2
176
     1
 67
     7
176
     1
 79
     5
176
     1
170
     0
176
     1
171
     0
176
     1
290
     0
176
     1
 93
       13
176
     1
 44
0.0
176
     1
173
     0
176
     1
  0
VISUALSTYLE
  5
38
102
{ACAD_REACTORS
330
2A
102
}
330
2A
100
AcDbVisualStyle
  2
Linepattern
 70
    14
177
     2
291
     1
 71
     2
176
     1
 72
     2
176
     1
 73
     0
176
     1
 90
        0
176
     1
 40
-0.6
176
     1
 41
-30.0
176
     1
 62
     5
 63
     7
421
 16777215
176
     1
 74
     1
176
     1
 91
        4
176
     1
 64
     7
176
     1
 65
   257
176
     1
 75
     7
176
     1
175
     7
176
     1
 42
1.0
176
     1
 92
        8
176
     1
 66
     7
176
     1
 43
1.0
176
     1
 76
     1
176
     1
 77
     6
176
     1
 78
     2
176
     1
 67
     7
176
     1
 79
     5
176
     1
170
     0
176
     1
171
     0
176
     1
290
     0
176
     1
 93
        1
176
     1
 44
0.0
176
     1
173
     0
176
     1
  0
VISUALSTYLE
  5
33
102
{ACAD_REACTORS
330
2A
102
}
330
2A
100
AcDbVisualStyle
  2
Realistic
 70
     8
177
     2
291
     0
 71
     2
176
     1
 72
     2
176
     1
 73
     0
176
     1
 90
        0
176
     1
 40
-0.6
176
     1
 41
-30.0
176
     1
 62
     5
 63
     7
421
 16777215
176
     1
 74
     1
176
     1
 91
        0
176
     1
 64
     7
176
     1
 65
   257
176
     1
 75
     1
176
     1
175
     1
176
     1
 42
1.0
176
     1
 92
        8
176
     1
 66
     8
424
  7895160
176
     1
 43
1.0
176
     1
 76
     1
176
     1
 77
     6
176
     1
 78
     2
176
     1
 67
     7
176
     1
 79
     5
176
     1
170
     0
176
     1
171
     0
176
     1
290
     0
176
     1
 93
       13
176
     1
 44
0.0
176
     1
173
     0
176
     1
  0
VISUALSTYLE
  5
37
102
{ACAD_REACTORS
330
2A
102
}
330
2A
100
AcDbVisualStyle
  2
Thicken
 70
    13
177
     2
291
     1
 71
     2
176
     1
 72
     2
176
     1
 73
     0
176
     1
 90
        0
176
     1
 40
-0.6
176
     1
 41
-30.0
176
     1
 62
     5
 63
     7
421
 16777215
176
     1
 74
     1
176
     1
 91
        4
176
     1
 64
     7
176
     1
 65
   257
176
     1
 75
     1
176
     1
175
     1
176
     1
 42
1.0
176
     1
 92
       12
176
     1
 66
     7
176
     1
 43
1.0
176
     1
 76
     1
176
     1
 77
     6
176
     1
 78
     2
176
     1
 67
     7
176
     1
 79
     5
176
     1
170
     0
176
     1
171
     0
176
     1
290
     0
176
     1
 93
        1
176
     1
 44
0.0
176
     1
173
     0
176
     1
  0
ENDSEC
  0
EOF
